<?xml version="1.0" encoding="UTF-8" standalone="no"?>
<svg
   xmlns:dc="http://purl.org/dc/elements/1.1/"
   xmlns:cc="http://creativecommons.org/ns#"
   xmlns:rdf="http://www.w3.org/1999/02/22-rdf-syntax-ns#"
   xmlns:svg="http://www.w3.org/2000/svg"
   xmlns="http://www.w3.org/2000/svg"
   xmlns:sodipodi="http://sodipodi.sourceforge.net/DTD/sodipodi-0.dtd"
   xmlns:inkscape="http://www.inkscape.org/namespaces/inkscape"
   id="svg133"
   viewBox="0 0 1024 768"
   height="768px"
   width="1024px"
   version="1.1"
   sodipodi:docname="coinstats.svg"
   inkscape:version="0.92.2 (5c3e80d, 2017-08-06)">
  <metadata
     id="metadata15">
    <rdf:RDF>
      <cc:Work
         rdf:about="">
        <dc:format>image/svg+xml</dc:format>
        <dc:type
           rdf:resource="http://purl.org/dc/dcmitype/StillImage" />
        <dc:title />
      </cc:Work>
    </rdf:RDF>
  </metadata>
  <sodipodi:namedview
     pagecolor="#ffffff"
     bordercolor="#666666"
     borderopacity="1"
     objecttolerance="10"
     gridtolerance="10"
     guidetolerance="10"
     inkscape:pageopacity="0"
     inkscape:pageshadow="2"
     inkscape:window-width="1920"
     inkscape:window-height="1019"
     id="namedview18"
     showgrid="false"
     inkscape:zoom="1.7383042"
     inkscape:cx="416.96375"
     inkscape:cy="188.78211"
     inkscape:window-x="0"
     inkscape:window-y="0"
     inkscape:window-maximized="1"
     inkscape:current-layer="svg133" />
  <defs
     id="defs137" />
  <g
     id="g920"
     inkscape:export-filename="/home/di/coinstats/src/images/logo.png"
     inkscape:export-xdpi="71.468803"
     inkscape:export-ydpi="71.468803"
     style="fill:#ffffff;fill-opacity:0.97044337">
    <path
       inkscape:connector-curvature="0"
       d="m 268.74326,413.22974 c 5.2027,2.93243 11.06757,4.35135 17.5946,4.35135 4.72973,0 9.08109,-0.75675 13.14866,-2.36486 4.06757,-1.51352 7.56757,-3.87838 10.40541,-6.90541 l -3.02703,-3.12162 c -5.3919,5.2973 -12.20271,7.94595 -20.33785,7.94595 -5.58108,0 -10.5946,-1.22974 -15.13514,-3.78379 -4.54054,-2.45946 -8.13514,-5.95946 -10.68919,-10.40541 C 258.05407,394.5 256.82433,389.48649 256.82433,384 c 0,-5.48649 1.22974,-10.40541 3.87839,-14.85136 2.55405,-4.44595 6.14865,-7.94595 10.68919,-10.50001 4.54054,-2.45946 9.55406,-3.78378 15.13514,-3.78378 8.22973,0 15.04055,2.64865 20.33785,7.85135 l 3.02703,-3.12162 c -2.83784,-3.02703 -6.33784,-5.2973 -10.31082,-6.81081 -4.06757,-1.51352 -8.51352,-2.36487 -13.24325,-2.36487 -6.52703,0 -12.3919,1.51352 -17.5946,4.35135 -5.20271,2.93244 -9.27028,6.90541 -12.2973,12.01352 -3.02703,5.10811 -4.44595,10.87839 -4.44595,17.21623 0,6.43243 1.41892,12.10811 4.44595,17.21622 3.02702,5.10811 7.09459,9.17568 12.2973,12.01352 z"
       style="font-style:normal;font-weight:300;font-size:72px;line-height:1;font-family:'Montserrat Light Alt1';font-variant-ligatures:none;text-align:center;text-anchor:middle;fill:#ffffff;stroke-width:1.3138144;fill-opacity:0.97044337"
       id="path141" />
    <path
       inkscape:connector-curvature="0"
       d="m 335.16495,413.22974 c 5.2027,2.93243 11.06757,4.35135 17.5946,4.35135 6.43243,0 12.2973,-1.41892 17.5946,-4.35135 5.20271,-2.83784 9.27028,-6.90541 12.2973,-12.01352 3.02703,-5.10811 4.54055,-10.78379 4.54055,-17.21622 0,-6.33784 -1.51352,-12.10812 -4.54055,-17.21623 -3.02702,-5.10811 -7.09459,-9.08108 -12.2973,-12.01352 -5.2973,-2.83783 -11.16217,-4.35135 -17.5946,-4.35135 -6.52703,0 -12.3919,1.51352 -17.5946,4.44595 -5.2973,2.93243 -9.36487,6.90541 -12.3919,12.01352 -3.02703,5.10811 -4.44595,10.87838 -4.44595,17.12163 0,6.33784 1.41892,12.01352 4.44595,17.12163 3.02703,5.10811 7.0946,9.17568 12.3919,12.10811 z m 32.63515,-3.87838 c -4.54055,2.55405 -9.55406,3.78379 -15.04055,3.78379 -5.58109,0 -10.5946,-1.22974 -15.13514,-3.78379 -4.54055,-2.45946 -8.04055,-5.95946 -10.5946,-10.40541 C 324.38116,394.5 323.15143,389.48649 323.15143,384 c 0,-5.48649 1.22973,-10.40541 3.87838,-14.85136 2.55405,-4.44595 6.05405,-7.94595 10.5946,-10.50001 4.54054,-2.45946 9.55405,-3.78378 15.13514,-3.78378 5.48649,0 10.5,1.32432 15.04055,3.78378 4.44594,2.55406 7.94595,6.05406 10.5946,10.50001 2.55405,4.44595 3.87838,9.36487 3.87838,14.85136 0,5.48649 -1.32433,10.5 -3.87838,14.94595 -2.64865,4.44595 -6.14866,7.94595 -10.5946,10.40541 z"
       style="font-style:normal;font-weight:300;font-size:72px;line-height:1;font-family:'Montserrat Light Alt1';font-variant-ligatures:none;text-align:center;text-anchor:middle;fill:#ffffff;stroke-width:1.3138144;fill-opacity:0.97044337"
       id="path143" />
    <path
       inkscape:connector-curvature="0"
       d="m 403.92491,350.89187 v 66.21625 h 4.82432 v -66.21625 z"
       style="font-style:normal;font-weight:300;font-size:72px;line-height:1;font-family:'Montserrat Light Alt1';font-variant-ligatures:none;text-align:center;text-anchor:middle;fill:#ffffff;stroke-width:1.3138144;fill-opacity:0.97044337"
       id="path145" />
    <path
       inkscape:connector-curvature="0"
       d="m 485.74187,350.89187 h -4.82433 v 57.51354 L 435.8905,350.89187 h -4.06757 v 66.21625 h 4.82432 v -57.51354 l 45.12165,57.51354 h 3.97297 z"
       style="font-style:normal;font-weight:300;font-size:72px;line-height:1;font-family:'Montserrat Light Alt1';font-variant-ligatures:none;text-align:center;text-anchor:middle;fill:#ffffff;stroke-width:1.3138144;fill-opacity:0.97044337"
       id="path147" />
    <path
       inkscape:connector-curvature="0"
       d="m 512.36583,415.12163 c 4.35136,1.70271 8.98649,2.45946 13.90542,2.45946 5.2027,0 9.64865,-0.75675 13.24324,-2.36486 3.5946,-1.51352 6.24325,-3.68919 7.94595,-6.33784 1.70271,-2.64865 2.64865,-5.58109 2.64865,-8.7973 0,-3.87838 -1.04054,-7.00001 -3.12162,-9.27028 -2.08108,-2.27027 -4.54054,-4.06757 -7.37838,-5.2027 -2.93243,-1.13514 -6.81081,-2.27028 -11.63514,-3.50001 -4.35135,-1.04054 -7.85136,-2.08108 -10.31082,-3.02702 -2.55405,-0.94595 -4.63513,-2.27028 -6.33784,-4.06757 -1.7027,-1.70271 -2.55405,-4.06757 -2.55405,-7.0946 0,-3.87838 1.51351,-7.0946 4.72973,-9.55406 3.12162,-2.45946 7.75676,-3.68919 13.90541,-3.68919 3.02703,0 6.14865,0.47297 9.36487,1.41892 3.21622,0.94595 6.14865,2.36487 8.7973,4.16216 l 1.7973,-3.87838 c -2.64865,-1.79729 -5.67568,-3.21621 -9.17568,-4.35135 -3.5946,-1.04054 -7.18919,-1.60811 -10.78379,-1.60811 -5.2973,0 -9.64865,0.85135 -13.14865,2.36487 -3.5,1.60811 -6.05406,3.78378 -7.75676,6.43243 -1.70271,2.64865 -2.55406,5.58109 -2.55406,8.7973 0,3.97298 0.94595,7.1892 3.02703,9.55406 2.08108,2.36487 4.54054,4.06757 7.47298,5.20271 2.93243,1.13513 6.81081,2.36486 11.72973,3.5 4.25676,1.04054 7.66217,1.98649 10.21622,2.93243 2.45946,0.94595 4.63514,2.36487 6.33784,4.06757 1.70271,1.7973 2.55406,4.16217 2.55406,7.0946 0,3.87838 -1.60811,7 -4.82433,9.36487 -3.21622,2.45946 -8.04054,3.59459 -14.28379,3.59459 -4.35135,0 -8.51352,-0.75675 -12.48649,-2.27027 -3.97298,-1.51351 -7.0946,-3.59459 -9.36487,-6.05405 l -2.17568,3.59459 c 2.45946,2.64865 5.86487,4.82433 10.21622,6.52703 z"
       style="font-style:normal;font-weight:300;font-size:72px;line-height:1;font-family:'Montserrat Light Alt1';font-variant-ligatures:none;text-align:center;text-anchor:middle;fill:#ffffff;stroke-width:1.3138144;fill-opacity:0.97044337"
       id="path149" />
    <path
       inkscape:connector-curvature="0"
       d="m 578.26134,355.24323 v 61.86489 h 4.82432 v -61.86489 h 23.83785 v -4.35136 h -52.50002 v 4.35136 z"
       style="font-style:normal;font-weight:300;font-size:72px;line-height:1;font-family:'Montserrat Light Alt1';font-variant-ligatures:none;text-align:center;text-anchor:middle;fill:#ffffff;stroke-width:1.3138144;fill-opacity:0.97044337"
       id="path151" />
    <path
       inkscape:connector-curvature="0"
       d="m 639.68577,350.89187 h -4.82432 l -30.45948,66.21625 h 5.20271 l 27.62163,-60.91895 27.71623,60.91895 h 5.20271 z"
       style="font-style:normal;font-weight:300;font-size:72px;line-height:1;font-family:'Montserrat Light Alt1';font-variant-ligatures:none;text-align:center;text-anchor:middle;fill:#ffffff;stroke-width:1.3138144;fill-opacity:0.97044337"
       id="path153" />
    <path
       inkscape:connector-curvature="0"
       d="m 691.51625,355.24323 v 61.86489 h 4.82433 v -61.86489 h 23.83785 v -4.35136 H 667.6784 v 4.35136 z"
       style="font-style:normal;font-weight:300;font-size:72px;line-height:1;font-family:'Montserrat Light Alt1';font-variant-ligatures:none;text-align:center;text-anchor:middle;fill:#ffffff;stroke-width:1.3138144;fill-opacity:0.97044337"
       id="path155" />
    <path
       inkscape:connector-curvature="0"
       d="m 734.25676,415.12163 c 4.35136,1.70271 8.98649,2.45946 13.90541,2.45946 5.20271,0 9.64866,-0.75675 13.24325,-2.36486 3.5946,-1.51352 6.24325,-3.68919 7.94595,-6.33784 1.70271,-2.64865 2.64865,-5.58109 2.64865,-8.7973 0,-3.87838 -1.04054,-7.00001 -3.12162,-9.27028 -2.08108,-2.27027 -4.54054,-4.06757 -7.37838,-5.2027 -2.93244,-1.13514 -6.81082,-2.27028 -11.63514,-3.50001 -4.35136,-1.04054 -7.85136,-2.08108 -10.31082,-3.02702 -2.55405,-0.94595 -4.63513,-2.27028 -6.33784,-4.06757 -1.7027,-1.70271 -2.55405,-4.06757 -2.55405,-7.0946 0,-3.87838 1.51351,-7.0946 4.72973,-9.55406 3.12162,-2.45946 7.75676,-3.68919 13.90541,-3.68919 3.02703,0 6.14865,0.47297 9.36487,1.41892 3.21622,0.94595 6.14865,2.36487 8.7973,4.16216 l 1.7973,-3.87838 c -2.64865,-1.79729 -5.67568,-3.21621 -9.17568,-4.35135 -3.5946,-1.04054 -7.18919,-1.60811 -10.78379,-1.60811 -5.2973,0 -9.64865,0.85135 -13.14865,2.36487 -3.50001,1.60811 -6.05406,3.78378 -7.75676,6.43243 -1.70271,2.64865 -2.55406,5.58109 -2.55406,8.7973 0,3.97298 0.94595,7.1892 3.02703,9.55406 2.08108,2.36487 4.54054,4.06757 7.47297,5.20271 2.93244,1.13513 6.81082,2.36486 11.72974,3.5 4.25676,1.04054 7.66217,1.98649 10.21622,2.93243 2.45946,0.94595 4.63514,2.36487 6.33784,4.06757 1.7027,1.7973 2.55406,4.16217 2.55406,7.0946 0,3.87838 -1.60811,7 -4.82433,9.36487 -3.21622,2.45946 -8.04054,3.59459 -14.28379,3.59459 -4.35135,0 -8.51352,-0.75675 -12.48649,-2.27027 -3.97298,-1.51351 -7.0946,-3.59459 -9.36487,-6.05405 l -2.17568,3.59459 c 2.45946,2.64865 5.86487,4.82433 10.21622,6.52703 z"
       style="font-style:normal;font-weight:300;font-size:72px;line-height:1;font-family:'Montserrat Light Alt1';font-variant-ligatures:none;text-align:center;text-anchor:middle;fill:#ffffff;stroke-width:1.3138144;fill-opacity:0.97044337"
       id="path157" />
  </g>
</svg>
