<svg version="1" xmlns="http://www.w3.org/2000/svg" width="426.667" height="426.667" viewBox="0 0 320.000000 320.000000"><path d="M147.3 1.7c-.3 1-3.2 7.4-6.5 14.2-3.2 6.8-5.8 12.5-5.8 12.6 0 .2-2.7 6-6 13s-6 12.8-6 13c0 .1-2.1 4.7-4.6 10.1-2.6 5.5-9.1 19.3-14.4 30.9C74.5 159.2 56.4 198.3 53.3 205c-1.9 4.1-4.6 10-6 13-1.4 3-4.2 9.1-6.3 13.5-2.1 4.4-4.9 10.6-6.4 13.7-1.4 3.2-4.1 9.1-6 13-6 12.8-11.6 25-11.6 25.3 0 .1-2.8 6.1-6.1 13.1-3.4 7.1-7.2 15.3-8.5 18.2L.1 320l32.2-.2 32.2-.3 7.1-16.5c4-9.1 8.3-19 9.7-22 3.2-7.3 17.4-39.8 25.4-58.5 3.6-8.3 7.3-16.9 8.4-19.3 3.9-8.6 5.8-13.1 13.4-30.7 4.3-9.9 9.1-20.9 10.8-24.5 1.6-3.6 3.7-8.5 4.7-11s2.9-7 4.3-10 4.5-10.1 7-15.8c4.3-10 4.4-10.2 5.6-7.5 1.1 2.4 12.3 27.8 40.1 91.3 3.7 8.5 9.1 20.9 12 27.5 2.9 6.6 6 13.8 7 16 1 2.2 7.5 17 14.4 33 7 15.9 13.1 29.9 13.6 31 .5 1.1 2.5 5.5 4.4 9.7l3.5 7.8h64l-2.8-6.3c-1.6-3.4-4.8-10.2-7.1-15.2s-5.1-11-6.2-13.5c-1.1-2.5-3.8-8.3-6-13-2.2-4.7-6.5-13.9-9.5-20.5-3.1-6.6-7-15.2-8.8-19-1.8-3.9-7.6-16.5-13-28-5.3-11.6-11.3-24.4-13.2-28.5-1.9-4.1-8.8-19-15.3-33-17.8-38.5-17.9-38.7-23.1-49.8-2.7-5.7-4.9-10.5-4.9-10.7 0-.2-2.4-5.4-5.4-11.6-4.8-10.3-14.3-30.7-27.7-59.9L172 .5l-12-.3c-10.8-.2-12.1-.1-12.7 1.5z"/></svg>